HIERARCHY
ROOT SpineBase
{
  OFFSET 0.000000 0.000000 0.000000
  CHANNELS 6 Xposition Yposition Zposition Zrotation Xrotation Yrotation
  JOINT SpineMid
  {
    OFFSET 0.000000 31.225859 0.000000
    CHANNELS 3 Zrotation Xrotation Yrotation
    JOINT SpineShoulder
    {
      OFFSET -0.989099 23.468249 -0.670040
      CHANNELS 3 Zrotation Xrotation Yrotation
      JOINT Neck
      {
        OFFSET -0.514604 7.810078 -0.483396
        CHANNELS 3 Zrotation Xrotation Yrotation
        JOINT Head
        {
          OFFSET -1.587670 11.765674 5.312003
          CHANNELS 3 Zrotation Xrotation Yrotation
          End Site
          {
            OFFSET 0 0 0
          }
        }
      }
      JOINT ShoulderLeft
      {
        OFFSET -8.588340 -3.239269 12.170738
        CHANNELS 3 Zrotation Xrotation Yrotation
        JOINT ElbowLeft
        {
          OFFSET -1.705463 -14.856075 -24.338684
          CHANNELS 3 Zrotation Xrotation Yrotation
          JOINT WristLeft
          {
            OFFSET -18.446941 -13.113884 -15.927990
            CHANNELS 3 Zrotation Xrotation Yrotation
            JOINT HandLeft
            {
              OFFSET -6.212371 -4.419955 -4.915569
              CHANNELS 3 Zrotation Xrotation Yrotation
              JOINT HandTipLeft
              {
                OFFSET -5.260708 -3.042734 -2.430191
                CHANNELS 3 Zrotation Xrotation Yrotation
                End Site
                {
                  OFFSET 0 0 0
                }
              }
              JOINT ThumbLeft
              {
                OFFSET -1.623941 3.281896 -3.733868
                CHANNELS 3 Zrotation Xrotation Yrotation
                End Site
                {
                  OFFSET 0 0 0
                }
              }
            }
          }
        }
      }
      JOINT ShoulderRight
      {
        OFFSET 3.571221 -4.577257 -12.670054
        CHANNELS 3 Zrotation Xrotation Yrotation
        JOINT ElbowRight
        {
          OFFSET -1.076714 -24.381933 -5.789850
          CHANNELS 3 Zrotation Xrotation Yrotation
          JOINT WristRight
          {
            OFFSET -5.849165 -25.703106 -0.860981
            CHANNELS 3 Zrotation Xrotation Yrotation
            JOINT HandRight
            {
              OFFSET -0.913132 -9.210375 1.766621
              CHANNELS 3 Zrotation Xrotation Yrotation
              JOINT HandTipRight
              {
                OFFSET -3.058272 -6.903242 0.338584
                CHANNELS 3 Zrotation Xrotation Yrotation
                End Site
                {
                  OFFSET 0 0 0
                }
              }
              JOINT ThumbRight
              {
                OFFSET 4.625491 0.349346 0.589905
                CHANNELS 3 Zrotation Xrotation Yrotation
                End Site
                {
                  OFFSET 0 0 0
                }
              }
            }
          }
        }
      }
    }
  }
  JOINT HipLeft
  {
    OFFSET -3.121748 -0.371634 -1.257043
    CHANNELS 3 Zrotation Xrotation Yrotation
    JOINT KneeLeft
    {
      OFFSET -3.558684 -43.908958 -5.460029
      CHANNELS 3 Zrotation Xrotation Yrotation
      JOINT AnkleLeft
      {
        OFFSET 5.419387 -43.810540 -3.371737
        CHANNELS 3 Zrotation Xrotation Yrotation
        JOINT FootLeft
        {
          OFFSET -0.580596 -0.568001 2.096307
          CHANNELS 3 Zrotation Xrotation Yrotation
          End Site
          {
            OFFSET 0 0 0
          }
        }
      }
    }
  }
  JOINT HipRight
  {
    OFFSET 2.623811 2.076830 -6.215895
    CHANNELS 3 Zrotation Xrotation Yrotation
    JOINT KneeRight
    {
      OFFSET -3.816955 -39.481680 -3.141985
      CHANNELS 3 Zrotation Xrotation Yrotation
      JOINT AnkleRight
      {
        OFFSET 4.614459 -42.403766 3.381999
        CHANNELS 3 Zrotation Xrotation Yrotation
        JOINT FootRight
        {
          OFFSET -6.591058 -5.221958 -6.799750
          CHANNELS 3 Zrotation Xrotation Yrotation
          End Site
          {
            OFFSET 0 0 0
          }
        }
      }
    }
  }
}
MOTION
Frames: 16
Frame Time: 0.033333
-47.567765 88.846057 386.088858 -0.000000 0.000000 40.796680 -0.000000 0.000000 -40.796680 -0.000000 0.000000 0.000000 -0.000000 0.000000 0.000000 0.000000 0.000000 0.000000 -0.000000 0.000000 0.000000 -0.000000 0.000000 0.000000 -0.000000 0.000000 0.000000 -0.000000 0.000000 0.000000 0.000000 0.000000 0.000000 0.000000 0.000000 0.000000 -0.000000 0.000000 0.000000 -0.000000 0.000000 0.000000 -0.000000 0.000000 0.000000 -0.000000 0.000000 0.000000 0.000000 0.000000 0.000000 0.000000 0.000000 0.000000 -0.000000 0.000000 -40.796680 -0.000000 0.000000 0.000000 -0.000000 0.000000 0.000000 0.000000 0.000000 0.000000 -0.000000 0.000000 -40.796680 -0.000000 0.000000 0.000000 -0.000000 0.000000 0.000000 0.000000 0.000000 0.000000
-48.223432 89.208141 386.367532 -0.095536 -0.222076 36.587530 -0.873121 0.522091 -36.627127 -0.359720 -0.160909 -0.078574 3.516583 0.426559 -0.831951 0.000000 0.000000 0.000000 1.466634 0.486960 0.116566 -0.000000 0.000000 0.000000 -0.000000 0.000000 0.000000 -0.000000 0.000000 0.000000 0.000000 0.000000 0.000000 0.000000 0.000000 0.000000 1.466634 0.486960 0.116566 -0.000000 0.000000 0.000000 -0.953907 -0.636373 -0.124941 -0.408824 3.797998 -1.295180 0.000000 0.000000 0.000000 0.000000 0.000000 0.000000 1.296346 -1.088689 -36.751032 -2.697848 0.831613 0.336511 1.257023 -11.612162 8.737872 0.000000 0.000000 0.000000 1.213372 0.393858 -36.722723 -0.642120 -0.818866 0.125682 3.030486 -2.790374 -0.374986 0.000000 0.000000 0.000000
-48.767691 89.446359 386.610270 -0.166614 -0.427594 33.485583 -1.615478 0.874153 -33.549186 -0.706200 -0.302911 -0.147911 6.507155 0.760494 -1.583310 0.000000 0.000000 0.000000 2.699535 0.901817 0.205069 -0.000000 0.000000 0.000000 -0.000000 0.000000 0.000000 -0.000000 0.000000 0.000000 0.000000 0.000000 0.000000 0.000000 0.000000 0.000000 2.699535 0.901817 0.205069 -0.000000 0.000000 0.000000 -1.708662 -1.171939 -0.228258 -0.777498 6.865342 -2.260632 0.000000 0.000000 0.000000 0.000000 0.000000 0.000000 2.482259 -1.979484 -33.771476 -5.101723 1.790719 0.678803 2.244229 -14.344865 9.798463 0.000000 0.000000 0.000000 2.126475 0.837724 -33.734653 -1.138849 -1.448946 0.216328 5.918292 -5.481006 -0.580549 0.000000 0.000000 0.000000
-49.200543 89.560713 386.817070 -0.212852 -0.615527 31.604040 -2.175088 1.125136 -31.680513 -1.033048 -0.424270 -0.206140 8.946297 1.004061 -2.232304 0.000000 0.000000 0.000000 3.682695 1.237825 0.269391 -0.000000 0.000000 0.000000 -0.000000 0.000000 0.000000 -0.000000 0.000000 0.000000 0.000000 0.000000 0.000000 0.000000 0.000000 0.000000 3.682695 1.237825 0.269391 -0.000000 0.000000 0.000000 -2.268478 -1.610645 -0.305941 -1.149573 9.244645 -2.956079 0.000000 0.000000 0.000000 0.000000 0.000000 0.000000 3.473277 -2.772348 -31.975871 -7.202676 2.881018 1.026944 2.864201 -15.687816 9.394268 0.000000 0.000000 0.000000 2.772040 1.229767 -31.941360 -1.493433 -1.892510 0.277180 8.604139 -7.995354 -0.632032 0.000000 0.000000 0.000000
-49.521987 89.551203 386.987933 -0.234107 -0.785026 30.971008 -2.519251 1.327336 -31.051979 -1.334735 -0.523655 -0.251772 10.817534 1.161298 -2.761775 0.000000 0.000000 0.000000 4.404445 1.490026 0.313081 -0.000000 0.000000 0.000000 -0.000000 0.000000 0.000000 -0.000000 0.000000 0.000000 0.000000 0.000000 0.000000 0.000000 0.000000 0.000000 3.586834 1.747696 0.518171 0.814981 -0.264873 -0.180107 -2.636572 -1.955732 -0.354929 -1.556295 10.978832 -3.426401 0.000000 0.000000 0.000000 0.000000 0.000000 0.000000 4.201497 -3.550328 -31.394956 -8.993003 4.105951 1.379594 3.174492 -16.498134 8.174874 0.000000 0.000000 0.000000 3.182762 1.502447 -31.365773 -1.708321 -2.151547 0.311923 11.033806 -10.268073 -0.555510 0.000000 0.000000 0.000000
-49.732024 89.417827 387.122860 -0.230480 -0.935425 31.552880 -2.629737 1.506707 -31.632106 -1.606549 -0.600058 -0.283737 12.111821 1.236939 -3.159362 0.000000 0.000000 0.000000 4.857286 1.655159 0.339031 -0.000000 0.000000 0.000000 -0.000000 0.000000 0.000000 -0.000000 0.000000 0.000000 0.000000 0.000000 0.000000 0.000000 0.000000 0.000000 3.997092 1.936151 0.556923 0.857076 -0.289118 -0.188774 -2.815014 -2.209582 -0.372969 -2.019700 12.103452 -3.704320 0.000000 0.000000 0.000000 0.000000 0.000000 0.000000 4.609849 -4.364202 -31.997942 -10.465603 5.468797 1.733816 3.147175 -16.923438 6.115733 0.000000 0.000000 0.000000 3.379215 1.623179 -31.970330 -1.785127 -2.227508 0.322753 13.160119 -12.248846 -0.383927 0.000000 0.000000 0.000000
-48.464320 88.393310 386.886542 1.271479 -0.671605 31.880378 -2.830785 1.669785 -31.900604 -2.742658 -0.897221 -0.333806 12.398214 1.108691 -3.364589 0.000000 0.000000 0.000000 4.747561 1.671545 0.334249 -0.000000 0.000000 0.000000 -0.000000 0.000000 0.000000 -0.000000 0.000000 0.000000 0.000000 0.000000 0.000000 0.000000 0.000000 0.000000 3.852108 1.854645 0.565599 0.893228 -0.191700 -0.202304 -2.883437 -2.218371 -0.386659 -3.729211 11.629898 -3.352776 0.000000 0.000000 0.000000 0.000000 0.000000 0.000000 4.375804 -5.554426 -32.414158 -15.839046 6.639843 2.690879 5.932770 -21.348565 6.767196 0.000000 0.000000 0.000000 0.361301 2.699446 -32.089449 -0.146212 -1.811788 0.184705 19.685087 -17.624652 -0.661805 0.000000 0.000000 0.000000
-48.172598 87.904377 386.956289 1.402655 -0.886408 37.270018 -2.039272 1.905817 -37.271902 -3.112005 -0.922035 -0.333869 12.134225 0.821569 -3.380344 0.000000 0.000000 0.000000 4.477809 1.549851 0.318264 -0.000000 0.000000 0.000000 -0.000000 0.000000 0.000000 -0.000000 0.000000 0.000000 0.000000 0.000000 0.000000 0.000000 0.000000 0.000000 3.635712 1.690433 0.535227 0.840444 -0.148257 -0.192066 -2.774290 -2.485867 -0.343691 -4.082918 11.112007 -3.055018 0.000000 0.000000 0.000000 0.000000 0.000000 0.000000 4.413875 -6.835717 -37.858119 -18.317147 8.190368 3.375345 7.219731 -15.783465 2.781463 0.000000 0.000000 0.000000 -0.102573 2.831485 -37.364283 0.395759 -1.304221 0.099226 20.202971 -18.140800 -0.412326 0.000000 0.000000 0.000000
-48.803372 87.566242 387.089955 0.543442 -1.115059 41.379273 -1.280826 1.771334 -41.407738 -2.704161 -0.789104 -0.302532 11.963318 0.717739 -3.388245 0.000000 0.000000 0.000000 4.285330 1.443087 0.305938 -0.000000 0.000000 0.000000 -0.000000 0.000000 0.000000 -0.000000 0.000000 0.000000 0.000000 0.000000 0.000000 0.000000 0.000000 0.000000 3.280207 1.474337 0.568354 1.004448 -0.040989 -0.236469 -2.618051 -1.984103 -0.348915 -3.599414 11.572269 -3.495526 0.000000 0.000000 0.000000 0.000000 0.000000 0.000000 1.524732 -6.754398 -41.668288 -12.363787 11.784866 2.837768 -0.754135 -17.268207 -10.925062 0.000000 0.000000 0.000000 0.982777 1.816291 -41.487660 -0.078502 -0.897443 0.092447 16.808057 -15.514585 -0.056416 0.000000 0.000000 0.000000
-50.178844 87.544559 387.339382 -0.916142 -1.404669 43.642141 -0.679978 1.487368 -43.724276 -2.060702 -0.577860 -0.274593 12.144369 0.975554 -3.339398 0.000000 0.000000 0.000000 4.488250 1.399020 0.314721 -0.000000 0.000000 0.000000 -0.000000 0.000000 0.000000 -0.000000 0.000000 0.000000 0.000000 0.000000 0.000000 0.000000 0.000000 0.000000 4.488250 1.399020 0.314721 -0.000000 0.000000 0.000000 -2.049487 -2.118813 -0.219797 -2.253262 11.256104 -3.573060 0.000000 0.000000 0.000000 0.000000 0.000000 0.000000 0.129137 -6.540939 -43.709413 -5.893111 14.129633 1.711128 -5.980161 -1.883044 -41.154988 0.000000 0.000000 0.000000 3.264813 -0.001380 -43.861586 -0.421264 -1.126885 0.255477 17.720407 -17.521289 1.371394 0.000000 0.000000 0.000000
-52.337949 87.944761 387.703670 -2.843303 -1.859512 47.523115 -0.020541 1.081939 -47.690951 -1.111863 -0.279620 -0.237345 11.734779 1.685011 -2.958182 0.000000 0.000000 0.000000 4.758672 1.451966 0.329398 -0.000000 0.000000 0.000000 -0.000000 0.000000 0.000000 -0.000000 0.000000 0.000000 0.000000 0.000000 0.000000 0.000000 0.000000 0.000000 4.758672 1.451966 0.329398 -0.000000 0.000000 0.000000 -1.282856 -2.505897 -0.025517 -1.370465 9.371567 -2.908468 0.000000 0.000000 0.000000 0.000000 0.000000 0.000000 3.912923 -6.504430 -47.806183 -5.572418 9.698419 1.398750 3.997459 18.450801 -81.083021 0.000000 0.000000 0.000000 6.160711 -3.399967 -47.781537 -2.393452 -0.622289 0.431403 13.893953 -14.862466 1.426839 0.000000 0.000000 0.000000
-53.588823 88.286683 387.772276 -3.290260 -1.918791 51.991914 -0.393158 1.321294 -52.197138 -1.096856 -0.243606 -0.269309 13.807990 2.841721 -3.430484 0.000000 0.000000 0.000000 5.658680 1.698632 0.377613 -0.000000 0.000000 0.000000 -0.000000 0.000000 0.000000 -0.000000 0.000000 0.000000 0.000000 0.000000 0.000000 0.000000 0.000000 0.000000 7.513118 2.185990 -0.146989 -1.936211 -1.290683 0.637366 -1.311624 -2.904680 -0.111302 1.888263 8.471060 -2.295081 0.000000 0.000000 0.000000 0.000000 0.000000 0.000000 5.527126 -7.915504 -52.436579 -8.392920 8.045562 1.763979 26.053306 28.678522 -99.084874 0.000000 0.000000 0.000000 6.403264 -5.862447 -52.194974 -3.549331 0.257066 0.497658 7.072821 -8.997534 0.907248 0.000000 0.000000 0.000000
-54.883669 88.776013 387.711488 -3.588827 -1.849514 54.841562 -0.161007 0.953805 -55.059112 -1.087052 -0.240516 -0.264671 15.159274 3.615846 -4.098071 0.000000 0.000000 0.000000 5.536759 1.711268 0.372124 -0.000000 0.000000 0.000000 -0.000000 0.000000 0.000000 -0.000000 0.000000 0.000000 0.000000 0.000000 0.000000 0.000000 0.000000 0.000000 8.769478 2.594350 -0.555585 -1.798176 -1.766523 0.966421 -2.596956 -5.180373 0.186777 4.212626 5.740282 -0.470057 0.000000 0.000000 0.000000 0.000000 0.000000 0.000000 6.484712 -12.677984 -55.474226 -15.353454 11.024868 3.233766 42.203321 29.966164 -108.566530 0.000000 0.000000 0.000000 6.510194 -8.212245 -55.009085 -4.913045 1.002900 0.591603 7.400835 -9.606313 1.093259 0.000000 0.000000 0.000000
-55.550787 88.748022 387.617369 -2.670357 -1.688001 54.702616 -0.407158 1.053710 -54.882895 -0.912063 -0.252714 -0.231740 15.112869 3.331557 -4.550656 0.000000 0.000000 0.000000 4.667635 1.692844 0.331022 -0.000000 0.000000 0.000000 -0.000000 0.000000 0.000000 -0.000000 0.000000 0.000000 0.000000 0.000000 0.000000 0.000000 0.000000 0.000000 8.006957 4.123558 -0.736678 -0.061390 -3.543479 1.146990 -1.488033 -6.363315 1.029283 5.184682 6.903934 -1.267098 0.000000 0.000000 0.000000 0.000000 0.000000 0.000000 4.676340 -15.756049 -55.505081 -18.903331 16.329555 4.628527 46.508921 27.567184 -113.439967 0.000000 0.000000 0.000000 6.117275 -8.233910 -54.912014 -5.513303 1.197073 0.650390 7.380102 -8.467028 -1.021285 0.000000 0.000000 0.000000
-55.653485 89.429539 387.495823 -0.885894 -1.738506 55.689972 -0.765923 1.297083 -55.808584 -0.644676 -0.215665 -0.169305 15.582737 5.663858 -5.576387 0.000000 0.000000 0.000000 2.576639 3.186409 0.842356 -2.677417 0.064201 1.197305 0.309717 0.613832 -1.423744 -1.722058 -1.389582 2.022266 0.000000 0.000000 0.000000 0.000000 0.000000 0.000000 5.737235 5.344243 -0.703747 2.583810 -4.998749 1.288697 2.097312 -4.402409 2.059036 2.554121 2.828772 -0.469096 0.000000 0.000000 0.000000 0.000000 0.000000 0.000000 4.986414 -15.857164 -56.649495 -21.231882 14.658181 4.792473 56.157138 31.033086 -114.337620 0.000000 0.000000 0.000000 4.802622 -7.174247 -55.977682 -5.865965 1.555823 0.634529 10.563377 -11.902285 0.281600 0.000000 0.000000 0.000000
-54.998265 89.116607 387.150668 1.798887 -1.058685 52.188442 -1.312804 1.529372 -52.189037 -0.639050 -0.207295 -0.082883 18.086500 6.217398 -7.874100 0.000000 0.000000 0.000000 0.706914 2.499952 0.236380 -2.254440 -0.193368 1.406376 -0.068976 0.554319 -0.884891 -0.184934 -0.960387 0.498512 0.000000 0.000000 0.000000 0.000000 0.000000 0.000000 2.707543 6.442957 -0.653685 5.739103 -7.019053 1.596573 5.294542 -1.987405 2.778453 -1.521461 1.187950 -1.000707 0.000000 0.000000 0.000000 0.000000 0.000000 0.000000 8.330027 -13.880205 -53.282235 -25.999974 8.782519 4.624093 61.292065 35.357374 -109.710368 0.000000 0.000000 0.000000 2.803742 -4.112690 -52.521473 -5.075837 1.016372 0.553615 20.421413 -23.036854 10.415101 0.000000 0.000000 0.000000
